<svg width="16" height="16" viewBox="0 0 16 16" fill="none" xmlns="http://www.w3.org/2000/svg">
<g clip-path="url(#clip0_3960_14728)">
<path d="M11.9994 9.66699C11.3957 9.6663 10.8002 9.8055 10.2594 10.0737C10.2162 10.093 10.1777 10.1215 10.1466 10.1572C10.1156 10.1929 10.0926 10.2349 10.0794 10.2803C10.059 10.3711 10.0733 10.4662 10.1194 10.547C10.6969 11.485 11.0017 12.5654 10.9994 13.667C11.0011 13.7549 11.0367 13.8387 11.0989 13.9008C11.161 13.963 11.2448 13.9986 11.3327 14.0003H15.666C15.7544 14.0003 15.8392 13.9652 15.9017 13.9027C15.9642 13.8402 15.9994 13.7554 15.9994 13.667C15.9994 12.6061 15.5779 11.5887 14.8278 10.8386C14.0776 10.0884 13.0602 9.66699 11.9994 9.66699Z" fill="#0F5E59"/>
<path d="M9.46094 6.83301C9.46094 7.16131 9.5256 7.4864 9.65124 7.78972C9.77688 8.09303 9.96102 8.36863 10.1932 8.60077C10.4253 8.83292 10.7009 9.01707 11.0042 9.14271C11.3075 9.26834 11.6326 9.33301 11.9609 9.33301C12.2892 9.33301 12.6143 9.26834 12.9176 9.14271C13.221 9.01707 13.4966 8.83292 13.7287 8.60077C13.9609 8.36863 14.145 8.09303 14.2706 7.78972C14.3963 7.4864 14.4609 7.16131 14.4609 6.83301C14.4609 6.5047 14.3963 6.17961 14.2706 5.8763C14.145 5.57298 13.9609 5.29739 13.7287 5.06524C13.4966 4.83309 13.221 4.64895 12.9176 4.52331C12.6143 4.39767 12.2892 4.33301 11.9609 4.33301C11.6326 4.33301 11.3075 4.39767 11.0042 4.52331C10.7009 4.64895 10.4253 4.83309 10.1932 5.06524C9.96102 5.29739 9.77688 5.57298 9.65124 5.8763C9.5256 6.17961 9.46094 6.5047 9.46094 6.83301Z" fill="#0F5E59"/>
<path d="M1.83594 5.16667C1.83594 6.00652 2.16957 6.81197 2.76343 7.40584C3.3573 7.9997 4.16275 8.33333 5.0026 8.33333C5.84246 8.33333 6.64791 7.9997 7.24178 7.40584C7.83564 6.81197 8.16927 6.00652 8.16927 5.16667C8.16927 4.32681 7.83564 3.52136 7.24178 2.9275C6.64791 2.33363 5.84246 2 5.0026 2C4.16275 2 3.3573 2.33363 2.76343 2.9275C2.16957 3.52136 1.83594 4.32681 1.83594 5.16667Z" fill="#0F5E59"/>
<path d="M10 13.667C10 12.3409 9.47322 11.0691 8.53553 10.1315C7.59785 9.19378 6.32608 8.66699 5 8.66699C3.67392 8.66699 2.40215 9.19378 1.46447 10.1315C0.526784 11.0691 0 12.3409 0 13.667C0 13.7554 0.035119 13.8402 0.0976311 13.9027C0.160143 13.9652 0.244928 14.0003 0.333333 14.0003H9.66667C9.75507 14.0003 9.83986 13.9652 9.90237 13.9027C9.96488 13.8402 10 13.7554 10 13.667Z" fill="#0F5E59"/>
</g>
<defs>
<clipPath id="clip0_3960_14728">
<rect width="16" height="16" fill="white"/>
</clipPath>
</defs>
</svg>
