<svg width="442" height="130" viewBox="0 0 442 130" fill="none" xmlns="http://www.w3.org/2000/svg">
<path d="M87.5982 12.8027V100.401L19.4629 129.61V108.463L68.1354 87.6127V21.1461L87.5982 12.8027Z" fill="#0E6E63"/>
<path d="M68.1356 0V21.147L48.6729 29.4749V8.34341L68.1356 0Z" fill="#30B99C"/>
<path d="M19.4628 87.2852V108.463L0 116.807V95.6286L19.4628 87.2852Z" fill="#30B99C"/>
<path d="M68.1354 21.1465V87.6131L19.4629 108.464V87.2856L48.6726 74.7626V29.4743L68.1354 21.1465Z" fill="#098D76"/>
<path d="M48.6725 8.34277V29.4742L19.4628 41.9971V87.2855L0 95.6289V29.2091L48.6725 8.34277Z" fill="#85D3BF"/>
<path d="M48.6726 29.4746V74.763L19.4629 87.2859V41.9975L48.6726 29.4746Z" fill="#30B99C"/>
<path d="M372.776 100.507C370.754 100.507 368.954 100.052 367.399 99.143C365.843 98.2334 364.621 96.9601 363.732 95.3685C362.866 93.7541 362.421 91.9351 362.421 89.8659C362.421 87.7968 362.866 86.0005 363.732 84.3861C364.599 82.7717 365.821 81.4984 367.399 80.5889C368.977 79.6794 370.754 79.2246 372.776 79.2246C374.799 79.2246 376.532 79.6794 378.11 80.5889C379.687 81.4984 380.887 82.7717 381.776 84.3861C382.643 86.0005 383.087 87.8422 383.087 89.8659C383.087 91.8896 382.643 93.7768 381.776 95.3685C380.909 96.9829 379.687 98.2334 378.11 99.143C376.532 100.052 374.776 100.507 372.776 100.507ZM372.776 98.3926C375.199 98.3926 377.154 97.5968 378.643 96.0051C380.132 94.4135 380.865 92.3671 380.865 89.8432C380.865 87.3193 380.132 85.3184 378.643 83.7494C377.154 82.1578 375.199 81.362 372.776 81.362C370.354 81.362 368.354 82.1578 366.866 83.7494C365.377 85.3411 364.644 87.3648 364.644 89.8432C364.644 92.3216 365.377 94.4135 366.866 96.0051C368.354 97.5968 370.31 98.3926 372.776 98.3926ZM368.577 95.2775V84.2042H373.621C374.732 84.2042 375.621 84.5225 376.31 85.1364C376.976 85.7504 377.31 86.6144 377.31 87.6603C377.31 89.3429 376.51 90.4344 374.932 90.9119L377.754 95.2548H374.621L372.154 91.071H371.243V95.2548H368.554L368.577 95.2775ZM371.243 89.0246H373.265C373.643 89.0246 373.954 88.9337 374.221 88.7518C374.487 88.5699 374.621 88.2515 374.621 87.7968C374.621 87.3875 374.487 87.0919 374.221 86.91C373.954 86.7281 373.621 86.6599 373.265 86.6599H371.243V89.0474V89.0246Z" fill="#105E59"/>
<path d="M144.853 54.8382C140.755 54.8382 137.181 53.9362 134.112 52.1516C131.043 50.3669 128.634 47.8913 126.906 44.7058C125.177 41.5394 124.303 37.8741 124.303 33.7098C124.303 29.5455 125.177 25.8802 126.906 22.7138C128.634 19.5474 131.043 17.0719 134.112 15.268C137.181 13.5025 140.755 12.6006 144.853 12.6006C148.952 12.6006 152.525 13.5025 155.594 15.2872C158.663 17.0719 161.053 19.5474 162.762 22.733C164.471 25.9186 165.326 29.5647 165.326 33.729C165.326 37.8933 164.471 41.5586 162.762 44.725C161.053 47.8913 158.663 50.3669 155.594 52.1707C152.525 53.9746 148.952 54.8574 144.853 54.8574V54.8382ZM144.853 48.9852C147.631 48.9852 150.039 48.3711 152.118 47.1621C154.176 45.9531 155.789 44.1876 156.954 41.904C158.12 39.6204 158.683 36.8954 158.683 33.729C158.683 30.5626 158.1 27.8376 156.954 25.554C155.789 23.2703 154.196 21.524 152.118 20.2959C150.059 19.0869 147.631 18.4728 144.853 18.4728C142.075 18.4728 139.648 19.0869 137.569 20.2959C135.491 21.524 133.879 23.2703 132.733 25.554C131.587 27.8376 131.023 30.5626 131.023 33.729C131.023 36.8954 131.587 39.6204 132.733 41.904C133.879 44.1876 135.471 45.9339 137.569 47.1621C139.648 48.3903 142.075 48.9852 144.853 48.9852Z" fill="#105E59"/>
<path d="M169.046 54.2412V20.8191H175.273L175.807 26.6806C176.82 24.6232 178.309 22.9929 180.276 21.7895C182.244 20.6056 184.516 20.0039 187.076 20.0039C191.048 20.0039 194.18 21.2655 196.453 23.7692C198.726 26.2924 199.872 30.0383 199.872 35.0264V54.2217H192.901V35.7639C192.901 29.3008 190.284 26.0595 185.07 26.0595C182.454 26.0595 180.315 27.0105 178.615 28.8932C176.915 30.7758 176.056 33.4737 176.056 36.9867V54.2412H169.027H169.046Z" fill="#105E59"/>
<path d="M219.273 54.858C216.036 54.858 213.163 54.1247 210.654 52.6772C208.145 51.2298 206.191 49.2034 204.773 46.6173C203.356 44.0313 202.647 41.0206 202.647 37.5661C202.647 34.1115 203.337 31.0237 204.735 28.3797C206.133 25.7357 208.087 23.69 210.577 22.2233C213.086 20.7566 215.997 20.0039 219.311 20.0039C222.625 20.0039 225.364 20.7373 227.758 22.1847C230.152 23.6321 232.01 25.562 233.351 27.9744C234.691 30.3868 235.342 33.0501 235.342 35.9449C235.342 36.3888 235.342 36.8713 235.304 37.3924C235.266 37.9135 235.247 38.4731 235.208 39.0907H209.543C209.773 42.3136 210.826 44.7453 212.703 46.4243C214.58 48.1034 216.764 48.9332 219.254 48.9332C221.246 48.9332 222.912 48.47 224.272 47.563C225.632 46.6559 226.628 45.4015 227.298 43.8383H234.347C233.465 46.9647 231.703 49.5701 229.06 51.6737C226.417 53.7773 223.161 54.8194 219.254 54.8194L219.273 54.858ZM219.273 25.8515C216.917 25.8515 214.848 26.5463 213.029 27.9551C211.209 29.364 210.098 31.4676 209.696 34.2852H228.313C228.179 31.6991 227.279 29.6341 225.593 28.1288C223.908 26.6042 221.801 25.8515 219.273 25.8515Z" fill="#105E59"/>
<path d="M275.677 37.2454C274.621 35.7039 273.18 34.4321 271.413 33.488C269.665 32.5438 267.648 31.7345 265.439 31.0793C263.134 30.3471 261.098 29.692 259.311 29.1139C257.563 28.5551 256.18 27.8614 255.181 27.0136C254.221 26.2043 253.74 25.0288 253.74 23.5066C253.74 21.7724 254.394 20.4621 255.719 19.4794C257.044 18.4966 258.773 18.0342 260.848 18.0534C262.461 18.0534 263.844 18.3617 264.939 18.9591C266.054 19.5564 266.899 20.3272 267.475 21.2521C268.051 22.177 268.339 23.1405 268.339 24.1425V24.3737H275.965V24.1232C275.908 21.7724 275.255 19.6913 274.006 17.9186C272.758 16.1458 270.99 14.7584 268.781 13.7757C266.572 12.793 263.979 12.292 261.059 12.292C258.139 12.292 255.489 12.7737 253.279 13.7372C251.051 14.7006 249.303 16.088 248.074 17.8222C246.844 19.5757 246.23 21.6568 246.268 23.9883C246.268 26.7823 247.171 29.0561 248.919 30.771C250.667 32.4667 253.299 33.8733 256.776 34.9331C258.408 35.4534 260.099 35.9544 261.751 36.4554C263.307 36.9179 264.709 37.4381 265.9 38.0162C267.072 38.575 268.013 39.3072 268.685 40.1743C269.358 41.0222 269.684 42.159 269.684 43.5464C269.684 45.2806 268.993 46.668 267.571 47.7856C266.15 48.9032 264.152 49.462 261.616 49.462C258.754 49.462 256.526 48.7105 254.951 47.2461C253.395 45.7816 252.588 43.9703 252.53 41.8507V41.6195H244.904V41.87C244.943 44.6062 245.692 46.9956 247.094 48.9803C248.496 50.965 250.475 52.5065 252.972 53.5663C255.45 54.6261 258.389 55.1657 261.674 55.1657C264.959 55.1657 267.955 54.5876 270.26 53.47C272.585 52.3524 274.352 50.8494 275.524 49.0574C276.695 47.2461 277.291 45.2614 277.291 43.161C277.291 40.7717 276.753 38.787 275.677 37.2262V37.2454Z" fill="#105E59"/>
<path d="M296.375 54.858C293.181 54.858 290.298 54.1247 287.747 52.6772C285.195 51.2298 283.189 49.1841 281.69 46.5787C280.209 43.9734 279.45 40.9241 279.45 37.431C279.45 33.9378 280.209 30.9079 281.709 28.2832C283.209 25.6778 285.254 23.6321 287.825 22.1847C290.396 20.7373 293.259 20.0039 296.414 20.0039C299.569 20.0039 302.491 20.7373 305.042 22.1847C307.594 23.6321 309.619 25.6585 311.119 28.2832C312.619 30.9079 313.379 33.9378 313.379 37.431C313.379 40.9241 312.619 43.9541 311.119 46.5787C309.6 49.1841 307.574 51.2298 305.003 52.6772C302.432 54.1247 299.55 54.858 296.356 54.858H296.375ZM296.375 48.7595C298.089 48.7595 299.667 48.335 301.147 47.4858C302.608 46.6366 303.796 45.3822 304.692 43.7032C305.588 42.0242 306.036 39.9399 306.036 37.431C306.036 34.9221 305.588 32.8378 304.711 31.1588C303.835 29.4798 302.666 28.2253 301.186 27.3762C299.725 26.527 298.128 26.1024 296.414 26.1024C294.7 26.1024 293.103 26.527 291.642 27.3762C290.182 28.2253 288.993 29.4798 288.097 31.1588C287.202 32.8378 286.754 34.9221 286.754 37.431C286.754 39.9399 287.202 42.0242 288.097 43.7032C288.993 45.3822 290.162 46.6366 291.623 47.4858C293.064 48.335 294.642 48.7595 296.356 48.7595H296.375Z" fill="#105E59"/>
<path d="M329.696 54.8383C325.683 54.8383 322.52 53.5881 320.224 51.1069C317.929 48.6065 316.771 44.8943 316.771 39.9512V20.9287H323.87V39.2203C323.87 45.6252 326.513 48.8373 331.779 48.8373C334.422 48.8373 336.582 47.8948 338.279 46.0291C339.977 44.1634 340.826 41.4899 340.826 38.0085V20.9287H347.924V54.0497H341.636L341.096 48.241C340.073 50.2798 338.569 51.8955 336.582 53.088C334.595 54.2613 332.3 54.8575 329.715 54.8575L329.696 54.8383Z" fill="#105E59"/>
<path d="M354.093 54.2412V20.8191H360.48L361.08 27.1464C362.242 24.9532 363.867 23.2064 365.958 21.9254C368.048 20.6444 370.564 20.0039 373.525 20.0039V27.4763H371.57C369.596 27.4763 367.835 27.8063 366.287 28.4468C364.738 29.1067 363.519 30.1936 362.59 31.7463C361.661 33.299 361.216 35.434 361.216 38.1706V54.2023H354.093V54.2412Z" fill="#105E59"/>
<path d="M390.481 54.858C387.218 54.858 384.301 54.1247 381.733 52.6386C379.164 51.1526 377.156 49.1262 375.708 46.5015C374.259 43.8962 373.525 40.8662 373.525 37.431C373.525 33.9957 374.259 30.9658 375.708 28.3604C377.156 25.755 379.164 23.7093 381.733 22.2233C384.301 20.7373 387.218 20.0039 390.481 20.0039C394.595 20.0039 398.052 21.0847 400.832 23.2269C403.633 25.369 405.429 28.2832 406.22 31.9307H398.785C398.341 30.0973 397.356 28.6692 395.831 27.6463C394.305 26.6235 392.528 26.1024 390.462 26.1024C388.724 26.1024 387.102 26.5463 385.634 27.4148C384.166 28.2832 382.969 29.557 382.081 31.236C381.192 32.915 380.748 34.98 380.748 37.431C380.748 39.882 381.192 41.947 382.081 43.626C382.969 45.305 384.166 46.5787 385.634 47.4858C387.102 48.3736 388.724 48.8174 390.462 48.8174C392.509 48.8174 394.305 48.2964 395.831 47.2735C397.356 46.2507 398.341 44.8032 398.785 42.9119H406.22C405.467 46.4822 403.671 49.3578 400.852 51.5579C398.032 53.758 394.575 54.8387 390.462 54.8387L390.481 54.858Z" fill="#105E59"/>
<path d="M425.769 54.858C422.503 54.858 419.605 54.1247 417.074 52.6772C414.542 51.2298 412.571 49.2034 411.141 46.6173C409.712 44.0313 408.997 41.0206 408.997 37.5661C408.997 34.1115 409.692 31.0237 411.103 28.3797C412.513 25.7357 414.484 23.69 417.016 22.2233C419.547 20.7566 422.484 20.0039 425.827 20.0039C429.17 20.0039 431.933 20.7373 434.348 22.1847C436.764 23.6321 438.638 25.562 439.99 27.9744C441.343 30.3868 442 33.0501 442 35.9449C442 36.3888 442 36.8713 441.961 37.3924C441.942 37.9135 441.903 38.4731 441.865 39.0907H415.972C416.204 42.3136 417.267 44.7453 419.16 46.4243C421.054 48.1034 423.257 48.9332 425.769 48.9332C427.778 48.9332 429.479 48.47 430.831 47.563C432.203 46.6559 433.208 45.4015 433.884 43.8383H440.995C440.106 46.9647 438.329 49.5701 435.662 51.6737C432.996 53.7773 429.711 54.8194 425.769 54.8194V54.858ZM425.769 25.8515C423.392 25.8515 421.305 26.5463 419.47 27.9551C417.634 29.364 416.513 31.4676 416.107 34.2852H434.889C434.754 31.6991 433.846 29.6341 432.145 28.1288C430.445 26.6042 428.319 25.8515 425.769 25.8515Z" fill="#105E59"/>
<path d="M126.462 99.89V58.5586H142.722C146.357 58.5586 149.36 59.172 151.751 60.3798C154.143 61.6067 155.922 63.2554 157.089 65.3641C158.255 67.4728 158.849 69.85 158.849 72.5147C158.849 75.1794 158.275 77.3648 157.146 79.4735C156.017 81.5823 154.257 83.2501 151.866 84.4962C149.475 85.7423 146.414 86.3557 142.703 86.3557H133.463V99.8709H126.462V99.89ZM133.502 80.5854H142.397C145.726 80.5854 148.098 79.8569 149.532 78.4192C150.967 76.9814 151.694 75.0068 151.694 72.5338C151.694 70.0609 150.967 67.9521 149.532 66.5143C148.098 65.0765 145.706 64.3481 142.397 64.3481H133.502V80.5854Z" fill="#105E59"/>
<path d="M162.858 99.8907V66.7697H169.144L169.734 73.04C170.877 70.8666 172.477 69.1355 174.534 67.8661C176.592 66.5966 179.068 65.9619 181.982 65.9619V73.367H180.058C178.115 73.367 176.382 73.694 174.858 74.3287C173.334 74.9827 172.115 76.0598 171.22 77.5985C170.325 79.1372 169.868 81.253 169.868 83.965V99.8523H162.858V99.8907Z" fill="#105E59"/>
<path d="M199.987 100.816C196.822 100.816 193.966 100.083 191.438 98.6353C188.909 97.1878 186.921 95.1421 185.435 92.5367C183.969 89.9314 183.216 86.8821 183.216 83.389C183.216 79.8958 183.969 76.8659 185.455 74.2412C186.941 71.6358 188.967 69.5901 191.515 68.1427C194.062 66.6953 196.899 65.9619 200.026 65.9619C203.153 65.9619 206.048 66.6953 208.576 68.1427C211.104 69.5901 213.111 71.6165 214.597 74.2412C216.083 76.8659 216.836 79.8958 216.836 83.389C216.836 86.8821 216.083 89.9121 214.597 92.5367C213.092 95.1421 211.085 97.1878 208.537 98.6353C205.99 100.083 203.133 100.816 199.968 100.816H199.987ZM199.987 94.7175C201.686 94.7175 203.249 94.293 204.716 93.4438C206.163 92.5946 207.341 91.3402 208.228 89.6612C209.116 87.9822 209.56 85.8979 209.56 83.389C209.56 80.8801 209.116 78.7958 208.248 77.1168C207.379 75.4378 206.221 74.1833 204.754 73.3342C203.307 72.485 201.724 72.0604 200.026 72.0604C198.328 72.0604 196.745 72.485 195.298 73.3342C193.85 74.1833 192.673 75.4378 191.785 77.1168C190.897 78.7958 190.453 80.8801 190.453 83.389C190.453 85.8979 190.897 87.9822 191.785 89.6612C192.673 91.3402 193.831 92.5946 195.278 93.4438C196.706 94.293 198.27 94.7175 199.968 94.7175H199.987Z" fill="#105E59"/>
<path d="M236.876 100.816C233.613 100.816 230.696 100.083 228.128 98.5966C225.559 97.1299 223.551 95.0842 222.103 92.4595C220.654 89.8542 219.92 86.8242 219.92 83.389C219.92 79.9537 220.654 76.9238 222.103 74.3184C223.551 71.713 225.559 69.6673 228.128 68.1813C230.696 66.7146 233.613 65.9619 236.876 65.9619C240.99 65.9619 244.447 67.0427 247.227 69.1849C250.028 71.3271 251.824 74.2412 252.615 77.8887H245.18C244.736 76.0553 243.751 74.6272 242.226 73.6043C240.7 72.5815 238.923 72.0604 236.857 72.0604C235.119 72.0604 233.497 72.5043 232.029 73.3728C230.561 74.2412 229.364 75.515 228.476 77.194C227.587 78.873 227.143 80.938 227.143 83.389C227.143 85.84 227.587 87.905 228.476 89.584C229.364 91.263 230.561 92.5367 232.029 93.4438C233.497 94.3316 235.119 94.7754 236.857 94.7754C238.904 94.7754 240.7 94.2544 242.226 93.2315C243.751 92.2087 244.736 90.7612 245.18 88.8699H252.615C251.862 92.4402 250.066 95.3158 247.247 97.5159C244.427 99.716 240.97 100.797 236.857 100.797L236.876 100.816Z" fill="#105E59"/>
<path d="M271.865 100.816C268.598 100.816 265.697 100.083 263.165 98.6353C260.632 97.1878 258.66 95.1614 257.229 92.5753C255.798 89.9893 255.083 86.9786 255.083 83.5241C255.083 80.0695 255.779 76.9817 257.19 74.3377C258.602 71.6937 260.574 69.648 263.087 68.1813C265.62 66.7146 268.559 65.9619 271.904 65.9619C275.249 65.9619 278.013 66.6953 280.43 68.1427C282.847 69.5901 284.722 71.5201 286.076 73.9324C287.429 76.3448 288.086 79.0081 288.086 81.9029C288.086 82.3468 288.086 82.8293 288.048 83.3504C288.009 83.8715 287.99 84.4311 287.951 85.0487H262.043C262.275 88.2716 263.339 90.7033 265.233 92.3823C267.128 94.0614 269.332 94.8912 271.846 94.8912C273.857 94.8912 275.539 94.428 276.911 93.521C278.284 92.6139 279.289 91.3595 279.966 89.7963H287.081C286.192 92.9227 284.413 95.5281 281.745 97.6317C279.077 99.7353 275.79 100.777 271.846 100.777L271.865 100.816ZM271.865 71.8095C269.487 71.8095 267.399 72.5043 265.562 73.9131C263.725 75.322 262.604 77.4256 262.198 80.2432H280.991C280.855 77.6572 279.947 75.5922 278.245 74.0868C276.544 72.5622 274.417 71.8095 271.865 71.8095Z" fill="#105E59"/>
<path d="M307.182 100.816C302.971 100.816 299.514 99.7932 296.79 97.7282C294.066 95.6632 292.502 92.942 292.096 89.5647H299.263C299.61 91.0893 300.46 92.3823 301.812 93.4824C303.145 94.5824 304.922 95.1228 307.105 95.1228C309.288 95.1228 310.814 94.6789 311.799 93.7912C312.784 92.9034 313.267 91.8806 313.267 90.7033C313.267 89.005 312.591 87.8471 311.219 87.2488C309.848 86.6505 307.974 86.0909 305.56 85.6084C303.686 85.2031 301.812 84.6627 299.958 84.0065C298.104 83.3311 296.558 82.3854 295.322 81.1503C294.086 79.9151 293.487 78.2554 293.487 76.1518C293.487 73.257 294.607 70.8253 296.848 68.8761C299.089 66.9269 302.218 65.9619 306.236 65.9619C309.945 65.9619 312.958 66.8497 315.257 68.6445C317.555 70.4393 318.907 72.9482 319.313 76.2097H312.475C312.243 74.7816 311.586 73.6622 310.505 72.8517C309.404 72.0411 307.936 71.6551 306.12 71.6551C304.304 71.6551 302.952 72.0218 301.967 72.7552C300.982 73.4886 300.499 74.4342 300.499 75.6115C300.499 76.7887 301.175 77.6958 302.546 78.3519C303.918 79.0274 305.714 79.6257 307.936 80.166C310.176 80.6485 312.243 81.2275 314.136 81.8837C316.029 82.5398 317.575 83.4855 318.734 84.7399C319.893 85.9944 320.472 87.8278 320.472 90.2402C320.511 93.2701 319.352 95.7983 316.956 97.8054C314.561 99.8125 311.316 100.816 307.202 100.816H307.182Z" fill="#105E59"/>
<path d="M339.271 100.816C335.057 100.816 331.597 99.7932 328.871 97.7282C326.146 95.6825 324.58 92.942 324.174 89.5647H331.346C331.713 91.0893 332.544 92.3823 333.897 93.4824C335.231 94.5824 337.009 95.1228 339.193 95.1228C341.378 95.1228 342.905 94.6789 343.891 93.7912C344.876 92.9034 345.36 91.8806 345.36 90.7033C345.36 89.005 344.683 87.8471 343.311 87.2488C341.938 86.6505 340.063 86.0909 337.647 85.6084C335.772 85.2031 333.897 84.6627 332.041 84.0065C330.186 83.3311 328.639 82.3854 327.402 81.1503C326.165 79.9151 325.547 78.2554 325.547 76.1518C325.547 73.257 326.668 70.8253 328.91 68.8761C331.152 66.9269 334.284 65.9619 338.304 65.9619C342.016 65.9619 345.031 66.8497 347.331 68.6445C349.631 70.4393 350.985 72.9482 351.39 76.2097H344.548C344.316 74.7816 343.659 73.6622 342.576 72.8517C341.474 72.0411 340.005 71.6551 338.188 71.6551C336.371 71.6551 335.018 72.0218 334.032 72.7552C333.047 73.4886 332.563 74.4342 332.563 75.6115C332.563 76.7887 333.24 77.6958 334.612 78.3519C335.985 79.0081 337.782 79.6257 340.005 80.166C342.248 80.6485 344.316 81.2275 346.21 81.8837C348.104 82.5398 349.651 83.4855 350.811 84.7399C351.97 85.9944 352.55 87.8278 352.55 90.2402C352.589 93.2701 351.429 95.7983 349.032 97.8054C346.635 99.8125 343.388 100.816 339.271 100.816Z" fill="#105E59"/>
</svg>
