<svg width="64" height="64" viewBox="0 0 64 64" fill="none" xmlns="http://www.w3.org/2000/svg">
<path opacity="0.1" d="M64.001 32.0001C64.001 49.6732 49.6741 64.0001 32.001 64.0001C14.3279 64.0001 0.000976562 49.6732 0.000976562 32.0001C0.000976562 14.327 14.3279 7.62939e-05 32.001 7.62939e-05C49.6741 7.62939e-05 64.001 14.327 64.001 32.0001ZM4.45604 32.0001C4.45604 47.2127 16.7883 59.545 32.001 59.545C47.2136 59.545 59.5459 47.2127 59.5459 32.0001C59.5459 16.7874 47.2136 4.45514 32.001 4.45514C16.7883 4.45514 4.45604 16.7874 4.45604 32.0001Z" fill="#0F5E59"/>
<path d="M64 32C64 25.671 62.1232 19.4841 58.607 14.2218C55.0908 8.95939 50.0931 4.85787 44.2459 2.43587C38.3986 0.0138659 31.9645 -0.619841 25.7571 0.614886C19.5497 1.84961 13.8479 4.89732 9.37258 9.3726C4.8973 13.8479 1.8496 19.5497 0.614871 25.7571C-0.619856 31.9645 0.0138508 38.3986 2.43586 44.2459C4.85786 50.0931 8.95938 55.0908 14.2218 58.607C19.4841 62.1232 25.671 64 32 64L32 59.5449C26.5521 59.5449 21.2266 57.9295 16.6969 54.9028C12.1671 51.8761 8.63661 47.5742 6.5518 42.541C4.46699 37.5078 3.92151 31.9695 4.98433 26.6263C6.04716 21.2831 8.67056 16.375 12.5228 12.5228C16.375 8.67058 21.2831 6.04718 26.6262 4.98435C31.9694 3.92152 37.5078 4.467 42.541 6.55182C47.5742 8.63663 51.8761 12.1671 54.9028 16.6969C57.9295 21.2266 59.5449 26.5521 59.5449 32H64Z" fill="#0F5E59"/>
<path d="M18.0441 37.1681C17.3721 37.1681 16.7794 37.0514 16.2661 36.8181C15.7621 36.5754 15.3607 36.2301 15.0621 35.7821C14.7634 35.3341 14.5907 34.7927 14.5441 34.1581H15.9861C16.0514 34.6527 16.2567 35.0681 16.6021 35.4041C16.9567 35.7307 17.4374 35.8941 18.0441 35.8941C18.6601 35.8941 19.1454 35.7214 19.5001 35.3761C19.8641 35.0307 20.0461 34.5641 20.0461 33.9761C20.0461 33.3787 19.8594 32.9261 19.4861 32.6181C19.1221 32.3007 18.6461 32.1421 18.0581 32.1421C17.8714 32.1421 17.6894 32.1654 17.5121 32.2121C17.3347 32.2587 17.1667 32.3287 17.0081 32.4221L16.1541 31.4421L19.3321 28.4461H14.8941V27.2001H21.1521V28.4041L18.3801 31.0361C18.8281 31.0267 19.2387 31.0921 19.6121 31.2321C19.9854 31.3721 20.3121 31.5727 20.5921 31.8341C20.8721 32.0861 21.0867 32.3941 21.2361 32.7581C21.3947 33.1221 21.4741 33.5234 21.4741 33.9621C21.4741 34.6341 21.3294 35.2127 21.0401 35.6981C20.7507 36.1741 20.3494 36.5381 19.8361 36.7901C19.3227 37.0421 18.7254 37.1681 18.0441 37.1681ZM29.7045 37.1681C29.0325 37.1681 28.4259 37.0234 27.8845 36.7341C27.3525 36.4354 26.9279 36.0107 26.6105 35.4601C26.3025 34.9094 26.1485 34.2607 26.1485 33.5141C26.1485 32.7674 26.3072 32.1234 26.6245 31.5821C26.9512 31.0407 27.3852 30.6254 27.9265 30.3361C28.4772 30.0374 29.0885 29.8881 29.7605 29.8881C30.4325 29.8881 31.0392 30.0327 31.5805 30.3221C32.1219 30.6114 32.5559 31.0267 32.8825 31.5681C33.2092 32.1094 33.3725 32.7581 33.3725 33.5141C33.3725 34.2234 33.2139 34.8534 32.8965 35.4041C32.5885 35.9547 32.1592 36.3887 31.6085 36.7061C31.0579 37.0141 30.4232 37.1681 29.7045 37.1681ZM29.7185 35.8801C30.1292 35.8801 30.4932 35.7774 30.8105 35.5721C31.1372 35.3667 31.3939 35.0867 31.5805 34.7321C31.7672 34.3681 31.8605 33.9574 31.8605 33.5001C31.8605 33.0334 31.7672 32.6274 31.5805 32.2821C31.4032 31.9274 31.1559 31.6567 30.8385 31.4701C30.5212 31.2741 30.1525 31.1761 29.7325 31.1761C29.2939 31.1761 28.9159 31.2787 28.5985 31.4841C28.2905 31.6894 28.0525 31.9694 27.8845 32.3241C27.7259 32.6694 27.6465 33.0661 27.6465 33.5141C27.6465 34.0274 27.7399 34.4614 27.9265 34.8161C28.1225 35.1707 28.3792 35.4367 28.6965 35.6141C29.0139 35.7914 29.3545 35.8801 29.7185 35.8801ZM34.9794 37.0001V31.3021H34.0554V30.0561H34.9794V29.3281C34.9794 28.5721 35.1707 28.0307 35.5534 27.7041C35.936 27.3681 36.468 27.2001 37.1494 27.2001H37.7934V28.4601H37.3874C37.0514 28.4601 36.8134 28.5301 36.6734 28.6701C36.5334 28.8007 36.4634 29.0247 36.4634 29.3421V30.0561H37.9474V31.3021H36.4634V37.0001H34.9794ZM47.0381 37.0001V35.0401H42.3901V33.8641L45.7361 27.2001H47.2061L43.9581 33.7381H47.1221V31.0781H48.5221V33.7381H49.7961V35.0401H48.5221V37.0001H47.0381Z" fill="#0F5E59"/>
</svg>
