<svg width="64" height="64" viewBox="0 0 64 64" fill="none" xmlns="http://www.w3.org/2000/svg">
<path opacity="0.1" d="M64.001 32.0001C64.001 49.6732 49.6741 64.0001 32.001 64.0001C14.3279 64.0001 0.000976562 49.6732 0.000976562 32.0001C0.000976562 14.3269 14.3279 6.10352e-05 32.001 6.10352e-05C49.6741 6.10352e-05 64.001 14.3269 64.001 32.0001ZM4.45604 32.0001C4.45604 47.2127 16.7883 59.545 32.001 59.545C47.2136 59.545 59.5459 47.2127 59.5459 32.0001C59.5459 16.7874 47.2136 4.45513 32.001 4.45513C16.7883 4.45513 4.45604 16.7874 4.45604 32.0001Z" fill="#0F5E59"/>
<path d="M32 0C27.7977 -5.01119e-08 23.6365 0.827704 19.7541 2.43585C15.8717 4.04401 12.3441 6.40111 9.37258 9.37258C6.40111 12.3441 4.04401 15.8717 2.43585 19.7541C0.827704 23.6365 -1.33576e-07 27.7977 0 32C1.33576e-07 36.2023 0.827705 40.3635 2.43586 44.2459C4.04401 48.1283 6.40111 51.6559 9.37258 54.6274C12.3441 57.5989 15.8717 59.956 19.7541 61.5641C23.6366 63.1723 27.7977 64 32 64L32 59.5449C28.3827 59.5449 24.8009 58.8325 21.459 57.4482C18.1171 56.0639 15.0806 54.035 12.5228 51.4772C9.96501 48.9194 7.93606 45.8829 6.5518 42.541C5.16754 39.1991 4.45507 35.6173 4.45507 32C4.45507 28.3827 5.16754 24.8009 6.5518 21.459C7.93606 18.1171 9.96501 15.0806 12.5228 12.5228C15.0806 9.96501 18.1171 7.93606 21.459 6.5518C24.8009 5.16754 28.3827 4.45507 32 4.45507L32 0Z" fill="#0F5E59"/>
<path d="M14.7541 37.0001V35.8381C14.7541 35.8381 14.8147 35.7774 14.9361 35.6561C15.0574 35.5254 15.2161 35.3574 15.4121 35.1521C15.6174 34.9467 15.8414 34.7181 16.0841 34.4661C16.3267 34.2141 16.5741 33.9574 16.8261 33.6961C17.0781 33.4254 17.3161 33.1734 17.5401 32.9401C17.9227 32.5481 18.2681 32.1887 18.5761 31.8621C18.8934 31.5261 19.1454 31.2041 19.3321 30.8961C19.5187 30.5881 19.6121 30.2894 19.6121 30.0001C19.6121 29.4867 19.4721 29.0761 19.1921 28.7681C18.9214 28.4507 18.5201 28.2921 17.9881 28.2921C17.6147 28.2921 17.2927 28.3761 17.0221 28.5441C16.7607 28.7121 16.5647 28.9407 16.4341 29.2301C16.3034 29.5101 16.2381 29.8274 16.2381 30.1821H14.7961C14.8054 29.5194 14.9454 28.9547 15.2161 28.4881C15.4867 28.0214 15.8601 27.6621 16.3361 27.4101C16.8214 27.1581 17.3814 27.0321 18.0161 27.0321C18.6787 27.0321 19.2387 27.1534 19.6961 27.3961C20.1534 27.6387 20.4987 27.9794 20.7321 28.4181C20.9654 28.8567 21.0821 29.3701 21.0821 29.9581C21.0821 30.4061 20.9747 30.8261 20.7601 31.2181C20.5547 31.6007 20.2934 31.9647 19.9761 32.3101C19.6587 32.6554 19.3321 32.9961 18.9961 33.3321C18.7907 33.5374 18.5761 33.7521 18.3521 33.9761C18.1374 34.1907 17.9274 34.4054 17.7221 34.6201C17.5261 34.8254 17.3441 35.0167 17.1761 35.1941C17.0174 35.3621 16.8867 35.4974 16.7841 35.6001C16.6907 35.6934 16.6441 35.7401 16.6441 35.7401H21.3621V37.0001H14.7541ZM29.7045 37.1681C29.0325 37.1681 28.4259 37.0234 27.8845 36.7341C27.3525 36.4354 26.9279 36.0107 26.6105 35.4601C26.3025 34.9094 26.1485 34.2607 26.1485 33.5141C26.1485 32.7674 26.3072 32.1234 26.6245 31.5821C26.9512 31.0407 27.3852 30.6254 27.9265 30.3361C28.4772 30.0374 29.0885 29.8881 29.7605 29.8881C30.4325 29.8881 31.0392 30.0327 31.5805 30.3221C32.1219 30.6114 32.5559 31.0267 32.8825 31.5681C33.2092 32.1094 33.3725 32.7581 33.3725 33.5141C33.3725 34.2234 33.2139 34.8534 32.8965 35.4041C32.5885 35.9547 32.1592 36.3887 31.6085 36.7061C31.0579 37.0141 30.4232 37.1681 29.7045 37.1681ZM29.7185 35.8801C30.1292 35.8801 30.4932 35.7774 30.8105 35.5721C31.1372 35.3667 31.3939 35.0867 31.5805 34.7321C31.7672 34.3681 31.8605 33.9574 31.8605 33.5001C31.8605 33.0334 31.7672 32.6274 31.5805 32.2821C31.4032 31.9274 31.1559 31.6567 30.8385 31.4701C30.5212 31.2741 30.1525 31.1761 29.7325 31.1761C29.2939 31.1761 28.9159 31.2787 28.5985 31.4841C28.2905 31.6894 28.0525 31.9694 27.8845 32.3241C27.7259 32.6694 27.6465 33.0661 27.6465 33.5141C27.6465 34.0274 27.7399 34.4614 27.9265 34.8161C28.1225 35.1707 28.3792 35.4367 28.6965 35.6141C29.0139 35.7914 29.3545 35.8801 29.7185 35.8801ZM34.9794 37.0001V31.3021H34.0554V30.0561H34.9794V29.3281C34.9794 28.5721 35.1707 28.0307 35.5534 27.7041C35.936 27.3681 36.468 27.2001 37.1494 27.2001H37.7934V28.4601H37.3874C37.0514 28.4601 36.8134 28.5301 36.6734 28.6701C36.5334 28.8007 36.4634 29.0247 36.4634 29.3421V30.0561H37.9474V31.3021H36.4634V37.0001H34.9794ZM47.0381 37.0001V35.0401H42.3901V33.8641L45.7361 27.2001H47.2061L43.9581 33.7381H47.1221V31.0781H48.5221V33.7381H49.7961V35.0401H48.5221V37.0001H47.0381Z" fill="#0F5E59"/>
</svg>
