<svg width="631" height="185" viewBox="0 0 631 185" fill="none" xmlns="http://www.w3.org/2000/svg">
<path d="M532.22 143.422C529.334 143.422 526.766 142.773 524.546 141.475C522.327 140.178 520.583 138.361 519.314 136.089C518.078 133.786 517.443 131.19 517.443 128.237C517.443 125.285 518.078 122.721 519.314 120.418C520.551 118.114 522.295 116.297 524.546 114.999C526.798 113.701 529.334 113.052 532.22 113.052C535.105 113.052 537.579 113.701 539.83 114.999C542.081 116.297 543.794 118.114 545.062 120.418C546.299 122.721 546.933 125.35 546.933 128.237C546.933 131.125 546.299 133.818 545.062 136.089C543.825 138.393 542.081 140.178 539.83 141.475C537.579 142.773 535.074 143.422 532.22 143.422ZM532.22 140.405C535.676 140.405 538.467 139.269 540.591 136.998C542.716 134.727 543.762 131.806 543.762 128.205C543.762 124.603 542.716 121.748 540.591 119.509C538.467 117.238 535.676 116.102 532.22 116.102C528.764 116.102 525.91 117.238 523.785 119.509C521.661 121.78 520.614 124.668 520.614 128.205C520.614 131.741 521.661 134.727 523.785 136.998C525.91 139.269 528.7 140.405 532.22 140.405ZM526.227 135.959V120.158H533.425C535.01 120.158 536.279 120.612 537.262 121.488C538.213 122.364 538.689 123.597 538.689 125.09C538.689 127.491 537.547 129.048 535.296 129.73L539.323 135.927H534.852L531.332 129.957H530.032V135.927H526.195L526.227 135.959ZM530.032 127.037H532.918C533.457 127.037 533.901 126.907 534.281 126.647C534.662 126.388 534.852 125.934 534.852 125.285C534.852 124.701 534.662 124.279 534.281 124.019C533.901 123.76 533.425 123.662 532.918 123.662H530.032V127.069V127.037Z" fill="white"/>
<path d="M206.979 78.2537C201.13 78.2537 196.03 76.9667 191.651 74.42C187.272 71.8733 183.835 68.3407 181.368 63.795C178.901 59.2767 177.654 54.0463 177.654 48.104C177.654 42.1617 178.901 36.9313 181.368 32.413C183.835 27.8946 187.272 24.3621 191.651 21.788C196.03 19.2687 201.13 17.9817 206.979 17.9817C212.827 17.9817 217.927 19.2687 222.306 21.8154C226.686 24.3621 230.095 27.8946 232.534 32.4404C234.973 36.9861 236.193 42.1891 236.193 48.1314C236.193 54.0737 234.973 59.304 232.534 63.8224C230.095 68.3407 226.686 71.8733 222.306 74.4474C217.927 77.0214 212.827 78.2811 206.979 78.2811V78.2537ZM206.979 69.9016C210.942 69.9016 214.379 69.0253 217.345 67.3001C220.283 65.575 222.584 63.0556 224.247 59.7969C225.91 56.5383 226.713 52.6497 226.713 48.1314C226.713 43.613 225.882 39.7245 224.247 36.4658C222.584 33.2071 220.311 30.7152 217.345 28.9626C214.407 27.2374 210.942 26.3611 206.979 26.3611C203.015 26.3611 199.55 27.2374 196.585 28.9626C193.619 30.7152 191.318 33.2071 189.683 36.4658C188.048 39.7245 187.244 43.613 187.244 48.1314C187.244 52.6497 188.048 56.5383 189.683 59.7969C191.318 63.0556 193.591 65.5476 196.585 67.3001C199.55 69.0527 203.015 69.9016 206.979 69.9016Z" fill="white"/>
<path d="M241.502 77.4008V29.7083H250.386L251.149 38.0725C252.594 35.1367 254.72 32.8102 257.527 31.0931C260.334 29.4036 263.577 28.5451 267.229 28.5451C272.898 28.5451 277.367 30.3453 280.61 33.9181C283.853 37.5186 285.489 42.8639 285.489 49.9818V77.3731H275.541V51.0342C275.541 41.8114 271.807 37.1862 264.367 37.1862C260.634 37.1862 257.581 38.5433 255.156 41.2298C252.73 43.9163 251.504 47.7661 251.504 52.7791V77.4008H241.474H241.502Z" fill="white"/>
<path d="M313.174 78.2811C308.555 78.2811 304.455 77.2346 300.875 75.1692C297.294 73.1037 294.506 70.2121 292.484 66.5218C290.461 62.8315 289.45 58.5354 289.45 53.6059C289.45 48.6763 290.434 44.27 292.429 40.4971C294.424 36.7242 297.212 33.8051 300.765 31.7121C304.346 29.6191 308.5 28.5451 313.228 28.5451C317.957 28.5451 321.865 29.5916 325.282 31.657C328.698 33.7225 331.349 36.4764 333.262 39.9188C335.176 43.3612 336.105 47.1617 336.105 51.2926C336.105 51.926 336.105 52.6144 336.05 53.358C335.996 54.1016 335.968 54.9002 335.914 55.7815H299.289C299.617 60.3805 301.121 63.8505 303.799 66.2464C306.478 68.6423 309.593 69.8265 313.146 69.8265C315.989 69.8265 318.367 69.1656 320.307 67.8712C322.248 66.5769 323.669 64.7868 324.626 62.5561H334.684C333.426 67.0175 330.912 70.7353 327.14 73.7371C323.368 76.7389 318.722 78.226 313.146 78.226L313.174 78.2811ZM313.174 36.8895C309.812 36.8895 306.86 37.8809 304.264 39.8913C301.667 41.9016 300.082 44.9034 299.508 48.9242H326.074C325.883 45.2339 324.598 42.2872 322.193 40.1391C319.788 37.9635 316.782 36.8895 313.174 36.8895Z" fill="white"/>
<path d="M393.662 53.1495C392.154 50.9498 390.098 49.135 387.577 47.7877C385.082 46.4403 382.204 45.2855 379.052 44.3506C375.762 43.3057 372.857 42.3709 370.308 41.546C367.813 40.7486 365.84 39.7587 364.414 38.5488C363.044 37.394 362.358 35.7167 362.358 33.5445C362.358 31.0698 363.29 29.2 365.182 27.7977C367.073 26.3954 369.54 25.7355 372.501 25.763C374.803 25.763 376.777 26.2029 378.339 27.0553C379.929 27.9077 381.135 29.0075 381.957 30.3274C382.78 31.6472 383.191 33.022 383.191 34.4519V34.7818H394.073V34.4244C393.991 31.0698 393.059 28.1002 391.277 25.5705C389.495 23.0408 386.974 21.0611 383.821 19.6587C380.669 18.2564 376.968 17.5415 372.802 17.5415C368.636 17.5415 364.853 18.2289 361.701 19.6037C358.521 20.9786 356.027 22.9583 354.272 25.433C352.518 27.9352 351.641 30.9048 351.696 34.2319C351.696 38.2189 352.984 41.4635 355.478 43.9107C357.973 46.3304 361.728 48.3376 366.689 49.8499C369.019 50.5923 371.431 51.3072 373.789 52.0221C376.009 52.682 378.01 53.4244 379.71 54.2493C381.382 55.0467 382.725 56.0916 383.684 57.329C384.644 58.5388 385.11 60.1611 385.11 62.1408C385.11 64.6155 384.123 66.5953 382.094 68.1901C380.066 69.7849 377.215 70.5823 373.597 70.5823C369.513 70.5823 366.333 69.5099 364.085 67.4202C361.865 65.3304 360.714 62.7458 360.632 59.7211V59.3912H349.749V59.7486C349.804 63.6532 350.873 67.0627 352.874 69.8949C354.875 72.727 357.699 74.9267 361.262 76.439C364.798 77.9513 368.992 78.7212 373.679 78.7212C378.366 78.7212 382.643 77.8964 385.932 76.3016C389.249 74.7068 391.77 72.562 393.443 70.0048C395.115 67.4202 395.964 64.588 395.964 61.5909C395.964 58.1813 395.197 55.3492 393.662 53.122V53.1495Z" fill="white"/>
<path d="M423.197 78.2811C418.639 78.2811 414.526 77.2346 410.885 75.1692C407.244 73.1037 404.381 70.1845 402.241 66.4667C400.129 62.7489 399.045 58.3977 399.045 53.4131C399.045 48.4285 400.129 44.1048 402.269 40.3594C404.409 36.6416 407.327 33.7225 410.996 31.657C414.665 29.5916 418.75 28.5451 423.253 28.5451C427.755 28.5451 431.924 29.5916 435.565 31.657C439.206 33.7225 442.097 36.6141 444.237 40.3594C446.377 44.1048 447.461 48.4285 447.461 53.4131C447.461 58.3977 446.377 62.7214 444.237 66.4667C442.069 70.1845 439.178 73.1037 435.51 75.1692C431.841 77.2346 427.728 78.2811 423.17 78.2811H423.197ZM423.197 69.5787C425.643 69.5787 427.894 68.9728 430.007 67.7611C432.091 66.5493 433.787 64.7593 435.065 62.3634C436.344 59.9675 436.983 56.9932 436.983 53.4131C436.983 49.833 436.344 46.8587 435.093 44.4628C433.842 42.0669 432.175 40.2768 430.062 39.0651C427.978 37.8534 425.699 37.2475 423.253 37.2475C420.807 37.2475 418.528 37.8534 416.444 39.0651C414.359 40.2768 412.664 42.0669 411.385 44.4628C410.107 46.8587 409.468 49.833 409.468 53.4131C409.468 56.9932 410.107 59.9675 411.385 62.3634C412.664 64.7593 414.331 66.5493 416.416 67.7611C418.473 68.9728 420.724 69.5787 423.17 69.5787H423.197Z" fill="white"/>
<path d="M470.745 78.2537C465.019 78.2537 460.505 76.4697 457.23 72.9291C453.954 69.3611 452.302 64.0639 452.302 57.0101V29.8655H462.432V55.9672C462.432 65.1068 466.203 69.6904 473.717 69.6904C477.489 69.6904 480.572 68.3455 482.994 65.6832C485.416 63.0209 486.627 59.2058 486.627 54.238V29.8655H496.757V77.1284H487.783L487.013 68.8396C485.554 71.7489 483.407 74.0544 480.572 75.7561C477.736 77.4303 474.461 78.2812 470.772 78.2812L470.745 78.2537Z" fill="white"/>
<path d="M505.56 77.4008V29.7083H514.674L515.53 38.7372C517.187 35.6075 519.507 33.1149 522.49 31.287C525.473 29.459 529.063 28.5451 533.289 28.5451V39.208H530.499C527.682 39.208 525.169 39.6789 522.959 40.5928C520.75 41.5345 519.01 43.0855 517.684 45.3011C516.358 47.5168 515.723 50.5634 515.723 54.4685V77.3454H505.56V77.4008Z" fill="white"/>
<path d="M557.484 78.2811C552.827 78.2811 548.666 77.2346 545.001 75.1141C541.335 72.9935 538.469 70.1019 536.403 66.3566C534.336 62.6388 533.289 58.3151 533.289 53.4131C533.289 48.5111 534.336 44.1874 536.403 40.4696C538.469 36.7518 541.335 33.8326 545.001 31.7121C548.666 29.5916 552.827 28.5451 557.484 28.5451C563.354 28.5451 568.287 30.0873 572.255 33.1441C576.251 36.201 578.814 40.3594 579.944 45.5644H569.334C568.7 42.9481 567.295 40.9102 565.118 39.4506C562.941 37.9911 560.405 37.2475 557.457 37.2475C554.976 37.2475 552.662 37.8809 550.567 39.1202C548.473 40.3594 546.764 42.177 545.497 44.573C544.229 46.9689 543.595 49.9156 543.595 53.4131C543.595 56.9106 544.229 59.8573 545.497 62.2532C546.764 64.6491 548.473 66.4667 550.567 67.7611C552.662 69.0279 554.976 69.6613 557.457 69.6613C560.378 69.6613 562.941 68.9177 565.118 67.4581C567.295 65.9986 568.7 63.9331 569.334 61.2342H579.944C578.869 66.329 576.306 70.4324 572.283 73.5719C568.259 76.7114 563.326 78.2536 557.457 78.2536L557.484 78.2811Z" fill="white"/>
<path d="M607.839 78.2811C603.179 78.2811 599.043 77.2346 595.431 75.1692C591.819 73.1037 589.006 70.2121 586.966 66.5218C584.925 62.8315 583.905 58.5354 583.905 53.6059C583.905 48.6763 584.898 44.27 586.911 40.4971C588.923 36.7242 591.736 33.8051 595.348 31.7121C598.96 29.6191 603.151 28.5451 607.921 28.5451C612.692 28.5451 616.635 29.5916 620.081 31.657C623.528 33.7225 626.202 36.4764 628.133 39.9188C630.063 43.3612 631 47.1617 631 51.2926C631 51.926 631 52.6144 630.945 53.358C630.917 54.1016 630.862 54.9002 630.807 55.7815H593.859C594.19 60.3805 595.706 63.8505 598.409 66.2464C601.111 68.6423 604.254 69.8265 607.839 69.8265C610.706 69.8265 613.133 69.1656 615.063 67.8712C617.021 66.5769 618.454 64.7868 619.419 62.5561H629.566C628.298 67.0175 625.761 70.7353 621.956 73.7371C618.151 76.7389 613.464 78.226 607.839 78.226V78.2811ZM607.839 36.8895C604.447 36.8895 601.469 37.8809 598.85 39.8913C596.23 41.9016 594.631 44.9034 594.052 48.9242H620.853C620.66 45.2339 619.364 42.2872 616.938 40.1391C614.511 37.9635 611.478 36.8895 607.839 36.8895Z" fill="white"/>
<path d="M180.735 142.542V83.5628H203.938C209.124 83.5628 213.41 84.4382 216.822 86.1617C220.235 87.9124 222.773 90.265 224.438 93.2741C226.104 96.2833 226.95 99.6754 226.95 103.478C226.95 107.28 226.131 110.399 224.52 113.408C222.91 116.417 220.398 118.797 216.986 120.575C213.574 122.353 209.206 123.229 203.911 123.229H190.726V142.515H180.735V142.542ZM190.78 114.995H203.474C208.224 114.995 211.608 113.955 213.656 111.903C215.703 109.852 216.74 107.034 216.74 103.505C216.74 99.9763 215.703 96.9672 213.656 94.9155C211.608 92.8638 208.196 91.8243 203.474 91.8243H190.78V114.995Z" fill="white"/>
<path d="M232.672 142.542V95.279H241.641L242.484 104.227C244.114 101.125 246.398 98.6549 249.333 96.8434C252.268 95.032 255.802 94.1262 259.96 94.1262V104.693H257.215C254.443 104.693 251.969 105.16 249.795 106.065C247.621 106.999 245.881 108.536 244.604 110.731C243.326 112.927 242.674 115.946 242.674 119.816V142.487H232.672V142.542Z" fill="white"/>
<path d="M285.654 143.862C281.137 143.862 277.061 142.816 273.453 140.75C269.845 138.685 267.009 135.766 264.888 132.048C262.795 128.33 261.721 123.979 261.721 118.994C261.721 114.01 262.795 109.686 264.916 105.941C267.036 102.223 269.928 99.3036 273.563 97.2382C277.199 95.1727 281.247 94.1262 285.709 94.1262C290.17 94.1262 294.301 95.1727 297.909 97.2382C301.517 99.3036 304.381 102.195 306.502 105.941C308.622 109.686 309.696 114.01 309.696 118.994C309.696 123.979 308.622 128.303 306.502 132.048C304.354 135.766 301.489 138.685 297.854 140.75C294.219 142.816 290.143 143.862 285.626 143.862H285.654ZM285.654 135.16C288.077 135.16 290.308 134.554 292.401 133.342C294.467 132.131 296.147 130.34 297.413 127.945C298.68 125.549 299.314 122.574 299.314 118.994C299.314 115.414 298.68 112.44 297.441 110.044C296.202 107.648 294.549 105.858 292.456 104.646C290.391 103.435 288.132 102.829 285.709 102.829C283.285 102.829 281.027 103.435 278.961 104.646C276.896 105.858 275.216 107.648 273.949 110.044C272.682 112.44 272.049 115.414 272.049 118.994C272.049 122.574 272.682 125.549 273.949 127.945C275.216 130.34 276.868 132.131 278.934 133.342C280.972 134.554 283.202 135.16 285.626 135.16H285.654Z" fill="white"/>
<path d="M338.293 143.862C333.636 143.862 329.475 142.816 325.81 140.695C322.145 138.602 319.279 135.683 317.212 131.938C315.145 128.22 314.098 123.896 314.098 118.994C314.098 114.092 315.145 109.769 317.212 106.051C319.279 102.333 322.145 99.4138 325.81 97.2932C329.475 95.2002 333.636 94.1262 338.293 94.1262C344.163 94.1262 349.096 95.6684 353.064 98.7253C357.06 101.782 359.623 105.941 360.753 111.146H350.143C349.509 108.529 348.104 106.491 345.927 105.032C343.75 103.572 341.215 102.829 338.266 102.829C335.786 102.829 333.471 103.462 331.376 104.701C329.282 105.941 327.574 107.758 326.306 110.154C325.038 112.55 324.404 115.497 324.404 118.994C324.404 122.492 325.038 125.438 326.306 127.834C327.574 130.23 329.282 132.048 331.376 133.342C333.471 134.609 335.786 135.242 338.266 135.242C341.187 135.242 343.75 134.499 345.927 133.039C348.104 131.58 349.509 129.514 350.143 126.815H360.753C359.678 131.91 357.115 136.014 353.092 139.153C349.068 142.293 344.136 143.835 338.266 143.835L338.293 143.862Z" fill="white"/>
<path d="M388.222 143.862C383.559 143.862 379.421 142.816 375.806 140.75C372.192 138.685 369.378 135.793 367.336 132.103C365.295 128.413 364.274 124.117 364.274 119.187C364.274 114.257 365.267 109.851 367.281 106.078C369.295 102.305 372.109 99.3862 375.696 97.2932C379.31 95.2002 383.504 94.1262 388.277 94.1262C393.05 94.1262 396.995 95.1727 400.444 97.2382C403.893 99.3036 406.569 102.058 408.5 105.5C410.431 108.942 411.369 112.743 411.369 116.874C411.369 117.507 411.369 118.196 411.314 118.939C411.259 119.683 411.231 120.481 411.176 121.363H374.206C374.537 125.962 376.055 129.432 378.758 131.828C381.462 134.223 384.607 135.408 388.194 135.408C391.063 135.408 393.464 134.747 395.423 133.452C397.381 132.158 398.816 130.368 399.782 128.137H409.935C408.665 132.599 406.127 136.316 402.32 139.318C398.513 142.32 393.822 143.807 388.194 143.807L388.222 143.862ZM388.222 102.471C384.828 102.471 381.849 103.462 379.228 105.472C376.607 107.483 375.006 110.485 374.427 114.505H401.244C401.051 110.815 399.754 107.868 397.326 105.72C394.898 103.545 391.863 102.471 388.222 102.471Z" fill="white"/>
<path d="M438.619 143.862C432.61 143.862 427.676 142.403 423.789 139.456C419.903 136.509 417.67 132.626 417.091 127.807H427.317C427.813 129.982 429.026 131.828 430.956 133.397C432.858 134.967 435.394 135.738 438.508 135.738C441.623 135.738 443.801 135.105 445.206 133.838C446.612 132.571 447.301 131.112 447.301 129.432C447.301 127.008 446.337 125.356 444.379 124.502C442.422 123.648 439.749 122.85 436.303 122.161C433.629 121.583 430.956 120.812 428.31 119.875C425.663 118.912 423.458 117.562 421.694 115.8C419.93 114.037 419.076 111.669 419.076 108.667C419.076 104.536 420.674 101.066 423.872 98.2847C427.069 95.5032 431.535 94.1262 437.268 94.1262C442.56 94.1262 446.86 95.393 450.14 97.9542C453.421 100.515 455.35 104.095 455.929 108.75H446.171C445.84 106.712 444.903 105.114 443.36 103.958C441.788 102.801 439.694 102.25 437.103 102.25C434.512 102.25 432.582 102.774 431.176 103.82C429.77 104.867 429.081 106.216 429.081 107.896C429.081 109.576 430.046 110.87 432.003 111.806C433.96 112.77 436.524 113.624 439.694 114.395C442.891 115.084 445.84 115.91 448.542 116.846C451.243 117.783 453.448 119.132 455.102 120.922C456.756 122.712 457.583 125.328 457.583 128.771C457.638 133.094 455.984 136.702 452.566 139.566C449.148 142.43 444.517 143.862 438.646 143.862H438.619Z" fill="white"/>
<path d="M484.408 143.862C478.395 143.862 473.458 142.403 469.569 139.456C465.679 136.537 463.445 132.626 462.866 127.807H473.099C473.623 129.982 474.809 131.828 476.74 133.397C478.643 134.967 481.181 135.738 484.298 135.738C487.415 135.738 489.594 135.105 491.001 133.838C492.407 132.571 493.097 131.112 493.097 129.432C493.097 127.008 492.131 125.356 490.173 124.502C488.215 123.648 485.539 122.85 482.091 122.161C479.416 121.583 476.74 120.812 474.092 119.875C471.444 118.912 469.238 117.562 467.472 115.8C465.707 114.037 464.824 111.669 464.824 108.667C464.824 104.536 466.424 101.066 469.624 98.2847C472.823 95.5032 477.292 94.1262 483.029 94.1262C488.325 94.1262 492.628 95.393 495.91 97.9542C499.193 100.515 501.124 104.095 501.703 108.75H491.938C491.607 106.712 490.67 105.114 489.125 103.958C487.553 102.801 485.456 102.25 482.864 102.25C480.271 102.25 478.34 102.774 476.933 103.82C475.526 104.867 474.837 106.216 474.837 107.896C474.837 109.576 475.802 110.87 477.761 111.806C479.719 112.743 482.284 113.624 485.456 114.395C488.656 115.084 491.607 115.91 494.311 116.846C497.014 117.783 499.22 119.132 500.875 120.922C502.53 122.712 503.358 125.328 503.358 128.771C503.413 133.094 501.758 136.702 498.338 139.566C494.917 142.43 490.283 143.862 484.408 143.862Z" fill="white"/>
<path d="M125.277 18.2704V143.271L28.0492 184.952V154.776L97.5038 125.022V30.1762L125.277 18.2704Z" fill="#05AC8A"/>
<path d="M97.5039 0L97.5038 30.1762L69.7309 42.0599V11.9059L97.5039 0Z" fill="#B0E0D0"/>
<path d="M28.0493 124.555L28.0492 154.776L0.276367 166.682V136.461L28.0493 124.555Z" fill="#B0E0D0"/>
<path d="M97.5038 30.1762V125.022L28.0492 154.776L28.0493 124.555L69.7309 106.685L69.7309 42.0599L97.5038 30.1762Z" fill="#5BC6AD"/>
<path d="M69.7309 11.9059V42.0599L28.0493 59.9299V124.555L0.276367 136.461V41.6817L69.7309 11.9059Z" fill="#F1F8F3"/>
<path d="M69.7309 42.0599L69.7309 106.685L28.0493 124.555V59.9299L69.7309 42.0599Z" fill="#B0E0D0"/>
</svg>
