<svg width="256" height="199" viewBox="0 0 256 199" fill="none" xmlns="http://www.w3.org/2000/svg">
<circle opacity="0.5" cx="158.988" cy="158.988" r="158.988" fill="#D7E2EB"/>
<g opacity="0.5">
<circle cx="93.6031" cy="93.6031" r="2.75304" fill="#D7E2EB"/>
<circle cx="93.6031" cy="126.64" r="2.75304" fill="#D7E2EB"/>
<circle cx="93.6031" cy="159.676" r="2.75304" fill="#D7E2EB"/>
<circle cx="93.6031" cy="192.713" r="2.75304" fill="#D7E2EB"/>
<circle cx="126.64" cy="93.6031" r="2.75304" fill="#D7E2EB"/>
<circle cx="126.64" cy="126.64" r="2.75304" fill="#D7E2EB"/>
<circle cx="126.64" cy="159.676" r="2.75304" fill="#D7E2EB"/>
<circle cx="126.64" cy="192.713" r="2.75304" fill="#D7E2EB"/>
<circle cx="159.676" cy="93.6031" r="2.75304" fill="#D7E2EB"/>
<circle cx="159.676" cy="126.64" r="2.75304" fill="#D7E2EB"/>
<circle cx="159.676" cy="159.676" r="2.75304" fill="#D7E2EB"/>
<circle cx="159.676" cy="192.713" r="2.75304" fill="#D7E2EB"/>
<circle cx="192.713" cy="93.6031" r="2.75304" fill="#D7E2EB"/>
<circle cx="225.749" cy="93.6031" r="2.75304" fill="#D7E2EB"/>
<circle cx="192.713" cy="126.64" r="2.75304" fill="#D7E2EB"/>
<circle cx="225.749" cy="126.64" r="2.75304" fill="#D7E2EB"/>
<circle cx="192.713" cy="159.676" r="2.75304" fill="#D7E2EB"/>
<circle cx="225.749" cy="159.676" r="2.75304" fill="#D7E2EB"/>
<circle cx="192.713" cy="192.713" r="2.75304" fill="#D7E2EB"/>
<circle cx="225.749" cy="192.713" r="2.75304" fill="#D7E2EB"/>
</g>
<circle opacity="0.5" cx="181.012" cy="183.765" r="158.3" stroke="#D7E2EB" stroke-width="1.37652"/>
</svg>
