<svg width="281" height="225" viewBox="0 0 281 225" fill="none" xmlns="http://www.w3.org/2000/svg">
<circle opacity="0.5" cx="99.9879" cy="40.9879" r="158.988" fill="#D7E2EB"/>
<g opacity="0.5">
<circle cx="34.6031" cy="8.63951" r="2.75304" fill="#D7E2EB"/>
<circle cx="34.6031" cy="41.6761" r="2.75304" fill="#D7E2EB"/>
<circle cx="34.6031" cy="74.7125" r="2.75304" fill="#D7E2EB"/>
<circle cx="34.6031" cy="107.749" r="2.75304" fill="#D7E2EB"/>
<circle cx="67.6398" cy="8.63951" r="2.75304" fill="#D7E2EB"/>
<circle cx="67.6398" cy="41.6761" r="2.75304" fill="#D7E2EB"/>
<circle cx="67.6398" cy="74.7125" r="2.75304" fill="#D7E2EB"/>
<circle cx="67.6398" cy="107.749" r="2.75304" fill="#D7E2EB"/>
<circle cx="100.676" cy="8.63951" r="2.75304" fill="#D7E2EB"/>
<circle cx="100.676" cy="41.6761" r="2.75304" fill="#D7E2EB"/>
<circle cx="100.676" cy="74.7125" r="2.75304" fill="#D7E2EB"/>
<circle cx="100.676" cy="107.749" r="2.75304" fill="#D7E2EB"/>
<circle cx="133.713" cy="8.63951" r="2.75304" fill="#D7E2EB"/>
<circle cx="166.749" cy="8.63951" r="2.75304" fill="#D7E2EB"/>
<circle cx="133.713" cy="41.6761" r="2.75304" fill="#D7E2EB"/>
<circle cx="166.749" cy="41.6761" r="2.75304" fill="#D7E2EB"/>
<circle cx="133.713" cy="74.7125" r="2.75304" fill="#D7E2EB"/>
<circle cx="166.749" cy="74.7125" r="2.75304" fill="#D7E2EB"/>
<circle cx="133.713" cy="107.749" r="2.75304" fill="#D7E2EB"/>
<circle cx="166.749" cy="107.749" r="2.75304" fill="#D7E2EB"/>
</g>
<circle opacity="0.5" cx="122.012" cy="65.7651" r="158.3" stroke="#D7E2EB" stroke-width="1.37652"/>
</svg>
