<svg width="64" height="64" viewBox="0 0 64 64" fill="none" xmlns="http://www.w3.org/2000/svg">
<path opacity="0.1" d="M64.001 32.0001C64.001 49.6732 49.6741 64.0001 32.001 64.0001C14.3279 64.0001 0.000976562 49.6732 0.000976562 32.0001C0.000976562 14.3269 14.3279 6.10352e-05 32.001 6.10352e-05C49.6741 6.10352e-05 64.001 14.3269 64.001 32.0001ZM4.45604 32.0001C4.45604 47.2127 16.7883 59.545 32.001 59.545C47.2136 59.545 59.5459 47.2127 59.5459 32.0001C59.5459 16.7874 47.2136 4.45513 32.001 4.45513C16.7883 4.45513 4.45604 16.7874 4.45604 32.0001Z" fill="#0F5E59"/>
<path d="M0 32C-3.67377e-07 36.2023 0.827704 40.3634 2.43585 44.2459C4.044 48.1283 6.40111 51.6559 9.37258 54.6274C12.3441 57.5989 15.8717 59.956 19.7541 61.5641C23.6365 63.1723 27.7977 64 32 64L32 59.5449C28.3827 59.5449 24.8009 58.8325 21.459 57.4482C18.1171 56.0639 15.0806 54.035 12.5228 51.4772C9.96501 48.9194 7.93606 45.8829 6.5518 42.541C5.16754 39.1991 4.45507 35.6172 4.45507 32L0 32Z" fill="#0F5E59"/>
<path d="M15.0481 37.0001V35.7541H17.8761V28.8661L15.1181 29.5521V28.4601L18.5061 27.2001H19.2901V35.7541H21.6841V37.0001H15.0481ZM29.7045 37.1681C29.0325 37.1681 28.4259 37.0234 27.8845 36.7341C27.3525 36.4354 26.9279 36.0107 26.6105 35.4601C26.3025 34.9094 26.1485 34.2607 26.1485 33.5141C26.1485 32.7674 26.3072 32.1234 26.6245 31.5821C26.9512 31.0407 27.3852 30.6254 27.9265 30.3361C28.4772 30.0374 29.0885 29.8881 29.7605 29.8881C30.4325 29.8881 31.0392 30.0327 31.5805 30.3221C32.1219 30.6114 32.5559 31.0267 32.8825 31.5681C33.2092 32.1094 33.3725 32.7581 33.3725 33.5141C33.3725 34.2234 33.2139 34.8534 32.8965 35.4041C32.5885 35.9547 32.1592 36.3887 31.6085 36.7061C31.0579 37.0141 30.4232 37.1681 29.7045 37.1681ZM29.7185 35.8801C30.1292 35.8801 30.4932 35.7774 30.8105 35.5721C31.1372 35.3667 31.3939 35.0867 31.5805 34.7321C31.7672 34.3681 31.8605 33.9574 31.8605 33.5001C31.8605 33.0334 31.7672 32.6274 31.5805 32.2821C31.4032 31.9274 31.1559 31.6567 30.8385 31.4701C30.5212 31.2741 30.1525 31.1761 29.7325 31.1761C29.2939 31.1761 28.9159 31.2787 28.5985 31.4841C28.2905 31.6894 28.0525 31.9694 27.8845 32.3241C27.7259 32.6694 27.6465 33.0661 27.6465 33.5141C27.6465 34.0274 27.7399 34.4614 27.9265 34.8161C28.1225 35.1707 28.3792 35.4367 28.6965 35.6141C29.0139 35.7914 29.3545 35.8801 29.7185 35.8801ZM34.9794 37.0001V31.3021H34.0554V30.0561H34.9794V29.3281C34.9794 28.5721 35.1707 28.0307 35.5534 27.7041C35.936 27.3681 36.468 27.2001 37.1494 27.2001H37.7934V28.4601H37.3874C37.0514 28.4601 36.8134 28.5301 36.6734 28.6701C36.5334 28.8007 36.4634 29.0247 36.4634 29.3421V30.0561H37.9474V31.3021H36.4634V37.0001H34.9794ZM47.0381 37.0001V35.0401H42.3901V33.8641L45.7361 27.2001H47.2061L43.9581 33.7381H47.1221V31.0781H48.5221V33.7381H49.7961V35.0401H48.5221V37.0001H47.0381Z" fill="#0F5E59"/>
</svg>
